# xmcd CD database file
#
# Track frame offsets:
#	150
#	14938
#	30954
#	49683
#	61930
#	75456
#	97075
#	109374
#	125966
#	140260
#	156381
#	177223
#
# Disc length: 2542 seconds
#
# Revision: 3
# Processed by: cddbd v1.5.1PL2 Copyright (c) Steve Scherf et al.
# Submitted via: CDex 1.51
#
DISCID=a509ec0c
DTITLE=Alberta Hunter, Lucille Hegamin, Victoria Spivey - Songs We Taught Your Mother
DYEAR=1961
DGENRE=
TTITLE0=Alberta Hunter - I Got Myself a Workin' Man
TTITLE1=Lucille Hegamin - St. Louis Blues
TTITLE2=Victoria Spivey - Black Snake Blues
TTITLE3=Alberta Hunter - I Got a Mind to Ramble
TTITLE4=Lucille Hegamin - You'll Want My Love
TTITLE5=Victoria Spivey - Going Blues
TTITLE6=Alberta Hunter - You Gotta Reap What You Sow
TTITLE7=Lucille Hegamin - Arkansas Blues
TTITLE8=Victoria Spivey - Got the Blues So Bad
TTITLE9=Alberta Hunter - Chirpin' the Blues
TTITLE10=Lucille Hegamin - Has Anybody Seen My Corine
TTITLE11=Victoria Spivey - Let Him Beat Me
EXTD=YEAR: 1961
EXTT0=
EXTT1=
EXTT2=
EXTT3=
EXTT4=
EXTT5=
EXTT6=
EXTT7=
EXTT8=
EXTT9=
EXTT10=
EXTT11=
PLAYORDER=
